#!OML:ASF F:\VICON\USERDATA\INSTALL\rory3\rory3.ASF
:FULLY-SPECIFIED
:DEGREES
55
root -0.21126519430511148 18.694545245818883 23.37361064754625 4.910242002012814 6.075951771260616 -3.7860070570184474
lfemur -41.98628985245365 -3.3717454163199427 -18.362434626781262
ltibia 47.23372462722732
lfoot 1.4927313920587681 -13.197401899038322
ltoes -18.29287317762133
rfemur 16.669373052899815 4.989289657778409 34.90556258941552
rtibia 29.031392482881117
rfoot 29.683539154785795 -0.42991655561411424
rtoes 7.4959053125813755
lowerback 11.472115689924701 2.1294223116014686 6.652536600167706
upperback -2.094894900291409 3.852375303744624 0.4254811809258603
thorax -8.564164328974297 1.5742829223473542 -3.949145599089196
lowerneck -18.412171559468952 -6.647120543846283 -2.279095615585152
upperneck 16.116622643143454 -9.184793561772695 3.7156315648678846
head 8.368226623563913 -4.156874012223049 0.5281748470034667
lclavicle -7.082603174786936e-16 -6.143783654530724e-16
lhumerus -74.51212894991073 -2.6451438591704615 94.69624364340162
lradius 119.37423870024207
lwrist 41.018418330925485
lhand -23.082391205857945 2.7050552758071458
lfingers 7.125020000000058
lthumb 3.362678441289793 32.57885823684468
rclavicle -7.082603174786936e-16 -6.143783654530724e-16
rhumerus -35.15662561091936 17.473449170373634 -97.26551669439826
rradius 123.86723802568258
rwrist -21.765869056003826
rhand -14.824504240779286 18.512125407467053
rfingers 7.125020000000058
rthumb 11.321349453355271 33.52355772551226
56
root -0.1899449270344274 18.793464092649465 24.564530934758412 5.149596152043368 5.921511098851898 -3.7855063972201206
lfemur -39.74353177403056 -3.194576212090533 -18.472062404415517
ltibia 37.64669890568283
lfoot 3.868657672838642 -14.17557763155435
ltoes -18.500794750521752
rfemur 17.98125081607553 6.709491380197733 35.567798958479514
rtibia 30.07878725556325
rfoot 31.72440969668823 -0.7946796492968042
rtoes 10.241511276346863
lowerback 10.847776808690506 2.3881459877044815 6.705524295878119
upperback -2.1554416056404433 4.159362233291342 0.2859595602272407
thorax -8.222353923743155 1.7254392073013407 -4.092753665599632
lowerneck -18.367125088566528 -6.739754102771267 -2.2991361263972023
upperneck 16.658655450012464 -9.339586822319959 3.8381104109476887
head 8.563219157669709 -4.218479251869354 0.5472003163738821
lclavicle -3.8953293061314875e-16 -3.6758680526508754e-16
lhumerus -75.88066878717083 -0.3269425647557922 93.66317297134621
lradius 120.77515211303522
lwrist 41.656343648613145
lhand -22.720985018593996 2.192319430570313
lfingers 7.125020000000059
lthumb 3.7115656297257953 32.05466375155095
rclavicle -3.8953293061314875e-16 -3.6758680526508754e-16
rhumerus -35.11929791474545 18.622886835892693 -97.28479206290412
rradius 123.87749224088418
rwrist -21.94892513793328
rhand -14.163561346906764 11.9801305664392
rfingers 7.125020000000059
rthumb 11.957480523854475 36.51392201332933
57
root -0.1717710540068106 18.81743232688397 25.73347000808765 5.170386258879738 5.601986237492168 -3.884282700398562
lfemur -37.46667478068974 -2.7059491668481876 -18.56852144705943
ltibia 30.59084109841057
lfoot 5.795759302254874 -14.530022942829397
ltoes -18.101644719075946
rfemur 17.933997365994536 8.021300938192866 36.20326017452405
rtibia 33.69822465310779
rfoot 30.769791647656536 -2.0501034606585407
rtoes 11.335718310140715
lowerback 10.63708548538375 2.587863604636626 6.655673398814382
upperback -2.0853350211106036 4.401010798695193 0.25172088615759547
thorax -7.970465708219998 1.8496289552341714 -4.085614499817398
lowerneck -18.469923001066622 -6.770612085165274 -2.3163981553475392
upperneck 16.883106390348253 -9.392588758142256 3.9358654640138946
head 8.67237654850489 -4.234033438228801 0.5691790439035389
lclavicle -1.2665013055785026e-16 -1.6403588131975892e-16
lhumerus -76.38403035812905 1.4498323441441192 92.87071948768323
lradius 121.44018171388646
lwrist 41.789599552453545
lhand -22.18787346118559 1.4579510374147837
lfingers 7.125020000000059
lthumb 4.226147964809933 31.299187170229636
rclavicle -1.2665013055785026e-16 -1.6403588131975892e-16
rhumerus -35.06044270744646 19.355492617677953 -97.28074741227083
rradius 123.09592712334333
rwrist -21.801905161747214
rhand -14.734997321938376 5.736080203117858
rfingers 7.125020000000059
rthumb 11.407867886602336 35.6349115039171
58
root -0.16253163738630966 18.790405048541064 26.74197618252182 4.915011472057539 5.338243295169825 -4.054867406782392
lfemur -35.436630264725935 -2.02736499076854 -18.821353881606438
ltibia 25.466327516236333
lfoot 7.142449680739071 -14.783832232411967
ltoes -17.334274551602032
rfemur 16.94484069465451 8.730845941114872 36.62762050877945
rtibia 39.505645354107486
rfoot 28.49155857005754 -3.692002533568587
rtoes 11.478499167096818
lowerback 10.754479630999192 2.713586046998641 6.526416855327167
upperback -1.938025636697205 4.554473681323675 0.2706383805059951
thorax -7.838891203823959 1.9333570407824419 -4.010834510454455
lowerneck -18.650599313159866 -6.776617432452952 -2.34140146714777
upperneck 16.795522526004586 -9.404054751217087 4.029014836679236
head 8.686141424323766 -4.229585418218642 0.5985078432130264
lclavicle -5.209866348426367e-17 -1.063104298590605e-16
lhumerus -76.55351144431505 2.4810780446236 92.5117479946381
lradius 121.9220170836866
lwrist 41.47069195563053
lhand -21.633036633052704 0.6791616790318464
lfingers 7.12502000000006
lthumb 4.761706670376365 30.498496965286602
rclavicle -5.209866348426367e-17 -1.063104298590605e-16
rhumerus -35.25613876328346 19.8369750560061 -97.54159097687514
rradius 122.03414528890659
rwrist -21.472707811467366
rhand -16.320885520283014 0.5682859185337961
rfingers 7.12502000000006
rthumb 9.881828080452674 31.40251955073956
59
root -0.14377838873431686 18.72274951044779 27.980931900528176 4.422804977772032 5.278075958892758 -4.129043530705229
lfemur -33.3526999007061 -1.2721082882444816 -19.22347117128407
ltibia 22.499334128751283
lfoot 7.876716405919494 -15.077495196222895
ltoes -15.960349200998408
rfemur 15.554204188110758 8.766687549782914 36.66635255652166
rtibia 47.32364640355323
rfoot 26.20800800774107 -5.2679532016925785
rtoes 10.764736972741668
lowerback 11.169283432882196 2.767153474205698 6.328428038012576
upperback -1.7299785440139133 4.612076137591194 0.30164159470509255
thorax -7.794836590141443 1.9730342708050106 -3.8501295135921842
lowerneck -18.78070295759107 -6.729253829017997 -2.3755016147177757
upperneck 16.588724478865974 -9.335630571974711 4.15126894904145
head 8.648457972931643 -4.189195162321932 0.6503127301072645
lclavicle 1.551550301532412e-16 5.4166719806087586e-17
lhumerus -76.2541356999215 2.8506652400364043 92.73951319455199
lradius 122.89193870232502
lwrist 40.92033700090265
lhand -21.289760600688084 0.37992990675710736
lfingers 7.12502000000006
lthumb 5.093132235145627 30.191387297102125
rclavicle 1.551550301532412e-16 5.4166719806087586e-17
rhumerus -35.56780568784633 20.172312096383294 -97.90631237379876
rradius 121.15582913207683
rwrist -20.76074692317553
rhand -18.120030380187398 -2.7950109906089544
rfingers 7.12502000000006
rthumb 8.150051898020402 25.8589279605778
60
root -0.1344220289905274 18.59834615255084 29.08925036755798 3.661539505807797 5.378225145974536 -4.0532636475273875
lfemur -31.48810929220487 -0.6635507094270692 -19.87409193398878
ltibia 21.667413146280655
lfoot 7.379800259912599 -15.567176641875527
ltoes -13.63811682957392
rfemur 13.5622188368571 7.97187463689243 35.97527761932959
rtibia 56.13844567731012
rfoot 24.347199226245394 -6.695653356907493
rtoes 9.346065037960884
lowerback 11.761466481914912 2.713951965698723 5.914170117555175
upperback -1.4766752373646996 4.500579446209402 0.29238218240834657
thorax -7.836184574270263 1.9387528314112048 -3.6153838531790234
lowerneck -18.79117426799583 -6.632238757121946 -2.423386201816946
upperneck 16.324027280162362 -9.199851545605942 4.262121706688558
head 8.565611740539529 -4.118409049691972 0.712566385252917
lclavicle 1.7998694725000007e-16 7.339410818615974e-17
lhumerus -75.58474171076912 2.56672308219434 93.32377331182192
lradius 123.13134156165177
lwrist 39.90781513178368
lhand -21.40446946376559 0.6367191140095283
lfingers 7.12502000000006
lthumb 4.9825337663865366 30.46096274942976
rclavicle 1.7998694725000007e-16 7.339410818615974e-17
rhumerus -36.08242724913923 19.874100052937983 -98.38691364810545
rradius 119.31324487804685
rwrist -19.85531436793704
rhand -19.424585191969957 -4.351146072550929
rfingers 7.12502000000006
rthumb 6.89356595754498 20.92940685232953
61
root -0.14254808909692307 18.415146193422892 30.097676215092278 2.7467495368297308 5.636039903657014 -3.762403534962796
lfemur -29.839810891934494 -0.3303866252428138 -20.69765408734788
ltibia 23.248358528211863
lfoot 5.471480200889237 -16.050904155112708
ltoes -9.995314740958529
rfemur 11.054115161284196 6.3949529101659275 34.488149066573655
rtibia 65.58650854024481
rfoot 22.97002872892051 -7.966700561172536
rtoes 8.034249712702826
lowerback 12.486152502104536 2.5705802325006726 5.233444550005985
upperback -1.1843327486269115 4.2278473199911275 0.229384445540062
thorax -7.9376954060176725 1.836222193077718 -3.2767239240096413
lowerneck -18.70782810089715 -6.510016239908358 -2.467748118174468
upperneck 16.05551463452863 -9.037603894994763 4.368973852381234
head 8.461289004993123 -4.034100205063567 0.7785705361293065
lclavicle 9.965708281034326e-17 1.1194377419556492e-17
lhumerus -74.43887233874601 1.8138873177876178 94.13119354548287
lradius 122.72316139328296
lwrist 38.792442121100564
lhand -21.845248628021746 1.2310424631891994
lfingers 7.12502000000006
lthumb 4.5572022157345 31.080421045452812
rclavicle 9.965708281034326e-17 1.1194377419556492e-17
rhumerus -36.74610341633503 19.04041737352613 -98.90943965593148
rradius 116.7553256628441
rwrist -19.001053983435302
rhand -20.078166405394942 -4.901383056082171
rfingers 7.12502000000006
rthumb 6.263213730088616 17.550306436793942
62
root -0.16290499058952396 18.183637382224916 30.890461517540913 1.838893216368855 6.001956568912561 -3.211799107568467
lfemur -28.37071005143938 -0.3119268307966281 -21.674121098093572
ltibia 26.860979281820033
lfoot 2.0763852866073367 -16.07758004572211
ltoes -5.376181224160764
rfemur 7.975710366637228 4.244709670481844 32.274849404677184
rtibia 75.3559912696279
rfoot 21.87949164677475 -9.009202691868303
rtoes 7.357366507799322
lowerback 13.304576900974498 2.384859753330903 4.274497238304348
upperback -0.8702936457906452 3.8492914117275423 0.09913512481578746
thorax -8.085156608836206 1.6911095176587065 -2.838687346777559
lowerneck -18.64355237838211 -6.410755440389336 -2.4823530379138647
upperneck 15.80897331445064 -8.921673533238474 4.482839312154128
head 8.366804453191186 -3.9670736357254492 0.8369035698342282
lclavicle -2.544624546583433e-17 -8.567359939866988e-17
lhumerus -72.64726275841079 0.7635722198420383 95.01515850100215
lradius 121.8356477243515
lwrist 37.98109103733245
lhand -22.324586814654264 1.9777016828393474
lfingers 7.12502000000006
lthumb 4.094634649412823 31.851039176703182
rclavicle -2.544624546583433e-17 -8.567359939866988e-17
rhumerus -37.55436361128084 17.907908523565833 -99.46812265420093
rradius 113.94529242986013
rwrist -18.36016430440599
rhand -20.348050063429383 -5.187932519376684
rfingers 7.12502000000006
rthumb 6.0021379275528215 15.552477865478906
